<?xml version='1.0' encoding='UTF-8' standalone='no'?>
<svg xmlns="http://www.w3.org/2000/svg" xmlns:xlink="http://www.w3.org/1999/xlink" height="210mm" baseProfile="tiny" viewBox="0 0 2970 2100" width="297mm" version="1.2">
 <title>FreeCAD SVG Export</title>
 <desc>Drawing page: Page exported from FreeCAD document: ______</desc>
 <defs/>
 <g stroke-linecap="square" stroke-linejoin="bevel" fill="none" id="Page" fill-rule="evenodd" stroke="black" stroke-width="1">
  <g transform="matrix(1,0,0,1,0,0)" font-family="WenQuanYi Micro Hei" stroke-linecap="square" font-weight="400" stroke-opacity="1" stroke-linejoin="bevel" fill="none" font-size="38.8056" font-style="normal" stroke="#000000" stroke-width="1"/>
  <g transform="matrix(1,0,0,1,1485,1050)" font-family="WenQuanYi Micro Hei" stroke-linecap="square" font-weight="400" stroke-opacity="1" stroke-linejoin="bevel" fill="none" font-size="38.8056" font-style="normal" stroke="#000000" stroke-width="1"/>
  <g transform="matrix(1,0,0,1,1485,1050)" font-family="WenQuanYi Micro Hei" stroke-linecap="square" font-weight="400" stroke-opacity="1" stroke-linejoin="bevel" fill="none" font-size="38.8056" font-style="normal" stroke="#000000" stroke-width="1"/>
  <g transform="matrix(1,0,0,1,1481,1985.75)" font-family="WenQuanYi Micro Hei" stroke-linecap="square" font-weight="400" stroke-opacity="1" stroke-linejoin="bevel" fill="none" font-size="38.8056" font-style="normal" stroke="#000000" stroke-width="1"/>
  <g transform="matrix(0.353,0,0,0.353,1473,2046.11)" font-family="WenQuanYi Micro Hei" stroke-linecap="square" font-weight="400" stroke-opacity="1" stroke-linejoin="bevel" fill="none" font-size="38.8056" font-style="normal" stroke="#000000" stroke-width="1"/>
  <g transform="matrix(0.353,0,0,0.353,1473,2046.11)" font-family="WenQuanYi Micro Hei" stroke-linecap="square" font-weight="400" stroke-opacity="1" stroke-linejoin="bevel" fill="none" font-size="38.8056" font-style="normal" stroke="#000000" stroke-width="1"/>
  <g transform="matrix(0.353,0,0,0.353,1473,2046.11)" font-family="WenQuanYi Micro Hei" stroke-linecap="square" font-weight="400" stroke-opacity="1" stroke-linejoin="bevel" fill="none" font-size="38.8056" font-style="normal" stroke="#000000" stroke-width="1"/>
  <g transform="matrix(0.353,0,0,0.353,1473,2046.11)" font-family="WenQuanYi Micro Hei" stroke-linecap="square" font-weight="400" stroke-opacity="1" stroke-linejoin="bevel" fill="none" font-size="38.8056" font-style="normal" stroke="#000000" stroke-width="1"/>
  <g transform="matrix(1,0,0,1,0,0)" font-family="WenQuanYi Micro Hei" stroke-linecap="square" font-weight="400" stroke-opacity="1" stroke-linejoin="bevel" fill="none" font-size="38.8056" font-style="normal" stroke="#000000" stroke-width="1"/>
  <g transform="matrix(0.353,0,0,0.353,1473,2046.11)" font-family="WenQuanYi Micro Hei" stroke-linecap="square" font-weight="400" stroke-opacity="1" stroke-linejoin="bevel" fill="none" font-size="38.8056" font-style="normal" stroke="#000000" stroke-width="1"/>
  <g transform="matrix(0.353,0,0,0.353,1473,2046.11)" font-family="WenQuanYi Micro Hei" stroke-linecap="square" font-weight="400" stroke-opacity="1" stroke-linejoin="bevel" fill="none" font-size="38.8056" font-style="normal" stroke="#000000" stroke-width="1"/>
  <g transform="matrix(1,0,0,1,1481,1985.75)" font-family="WenQuanYi Micro Hei" stroke-linecap="square" font-weight="400" stroke-opacity="1" stroke-linejoin="bevel" fill="none" font-size="38.8056" font-style="normal" stroke="#000000" stroke-width="1"/>
  <g transform="matrix(1,0,0,1,1485,1050)" font-family="WenQuanYi Micro Hei" stroke-linecap="square" font-weight="400" stroke-opacity="1" stroke-linejoin="bevel" fill="none" font-size="38.8056" font-style="normal" stroke="#000000" stroke-width="1"/>
  <g transform="matrix(1,0,0,1,1485,1050)" font-family="WenQuanYi Micro Hei" font-weight="400" fill="#ffffff" font-size="38.8056" font-style="normal" fill-opacity="1" stroke="none">
   <path vector-effect="non-scaling-stroke" d="M1038.75,15 L1038.75,918.75 L-1038.75,918.75 L-1038.75,-918.75 L1038.75,-918.75 L1038.75,-806.25 L-926.25,-806.25 L-926.25,806.25 L-273.75,806.25 L-273.75,431.25 L926.25,431.25 L926.25,15 L926.25,-97.5 L1038.75,-97.5 L1038.75,15" fill-rule="evenodd"/>
  </g>
  <g transform="matrix(1,0,0,1,1485,1050)" font-family="WenQuanYi Micro Hei" stroke-linecap="square" font-weight="400" stroke-opacity="1" stroke-linejoin="bevel" fill="none" font-size="38.8056" font-style="normal" stroke="#000000" stroke-width="1"/>
  <g transform="matrix(1,0,0,1,1485,1050)" font-family="WenQuanYi Micro Hei" stroke-linecap="square" font-weight="400" stroke-opacity="1" stroke-linejoin="bevel" fill="none" font-size="38.8056" font-style="normal" stroke="#000000" stroke-width="1"/>
  <g transform="matrix(1,0,0,1,1485,1050)" font-family="WenQuanYi Micro Hei" stroke-linecap="square" font-weight="400" stroke-opacity="1" stroke-linejoin="bevel" fill="none" font-size="38.8056" font-style="normal" stroke="#000000" stroke-width="1"/>
  <g transform="matrix(1,0,0,1,0,0)" font-family="WenQuanYi Micro Hei" stroke-linecap="square" font-weight="400" stroke-opacity="1" stroke-linejoin="bevel" fill="none" font-size="38.8056" font-style="normal" stroke="#000000" stroke-width="1"/>
  <g transform="matrix(1,0,0,1,1485,1050)" font-family="WenQuanYi Micro Hei" stroke-linecap="square" font-weight="400" stroke-opacity="1" stroke-linejoin="bevel" fill="none" font-size="38.8056" font-style="normal" stroke="#000000" stroke-width="1"/>
  <g transform="matrix(1,0,0,1,1485,1050)" font-family="WenQuanYi Micro Hei" stroke-linecap="square" font-weight="400" stroke-opacity="1" stroke-linejoin="bevel" fill="none" font-size="38.8056" font-style="normal" stroke="#000000" stroke-width="1"/>
  <g transform="matrix(1,0,0,1,1485,1050)" font-family="WenQuanYi Micro Hei" font-weight="400" fill="#ffffff" font-size="38.8056" font-style="normal" fill-opacity="1" stroke="none">
   <path vector-effect="non-scaling-stroke" d="M-326.25,806.247 L-326.25,-768.753 L-926.25,-768.753 L-926.25,806.247 L-326.25,806.247" fill-rule="evenodd"/>
  </g>
  <g transform="matrix(1,0,0,1,1485,1050)" font-family="WenQuanYi Micro Hei" stroke-linecap="square" font-weight="400" stroke-opacity="1" stroke-linejoin="bevel" fill="none" font-size="38.8056" font-style="normal" stroke="#000000" stroke-width="1"/>
  <g transform="matrix(1,0,0,1,1485,1050)" font-family="WenQuanYi Micro Hei" stroke-linecap="square" font-weight="400" stroke-opacity="1" stroke-linejoin="bevel" fill="none" font-size="38.8056" font-style="normal" stroke="#000000" stroke-width="1"/>
  <g transform="matrix(1,0,0,1,1485,1050)" font-family="WenQuanYi Micro Hei" stroke-linecap="square" font-weight="400" stroke-opacity="1" stroke-linejoin="bevel" fill="none" font-size="38.8056" font-style="normal" stroke="#000000" stroke-width="1"/>
  <g transform="matrix(1,0,0,1,0,0)" font-family="WenQuanYi Micro Hei" stroke-linecap="square" font-weight="400" stroke-opacity="1" stroke-linejoin="bevel" fill="none" font-size="38.8056" font-style="normal" stroke="#000000" stroke-width="1"/>
  <g transform="matrix(1,0,0,1,1485,1050)" font-family="WenQuanYi Micro Hei" stroke-linecap="square" font-weight="400" stroke-opacity="1" stroke-linejoin="bevel" fill="none" font-size="38.8056" font-style="normal" stroke="#000000" stroke-width="1"/>
  <g transform="matrix(1,0,0,1,1485,1050)" font-family="WenQuanYi Micro Hei" stroke-linecap="square" font-weight="400" stroke-opacity="1" stroke-linejoin="bevel" fill="none" font-size="38.8056" font-style="normal" stroke="#000000" stroke-width="1"/>
  <g transform="matrix(1,0,0,1,1485,1050)" font-family="WenQuanYi Micro Hei" font-weight="400" fill="#ffffff" font-size="38.8056" font-style="normal" fill-opacity="1" stroke="none">
   <path vector-effect="non-scaling-stroke" d="M1038.75,15 L1038.75,918.75 L-1038.75,918.75 L-1038.75,-918.75 L1038.75,-918.75 L1038.75,-806.25 L-926.25,-806.25 L-926.25,806.25 L-273.75,806.25 L926.25,806.25 L926.25,431.25 L926.25,15 L1038.75,15" fill-rule="evenodd"/>
  </g>
  <g transform="matrix(1,0,0,1,1485,1050)" font-family="WenQuanYi Micro Hei" stroke-linecap="square" font-weight="400" stroke-opacity="1" stroke-linejoin="bevel" fill="none" font-size="38.8056" font-style="normal" stroke="#000000" stroke-width="1"/>
  <g transform="matrix(1,0,0,1,1485,1050)" font-family="WenQuanYi Micro Hei" stroke-linecap="square" font-weight="400" stroke-opacity="1" stroke-linejoin="bevel" fill="none" font-size="38.8056" font-style="normal" stroke="#000000" stroke-width="1"/>
  <g transform="matrix(1,0,0,1,1485,1050)" font-family="WenQuanYi Micro Hei" stroke-linecap="square" font-weight="400" stroke-opacity="1" stroke-linejoin="bevel" fill="none" font-size="38.8056" font-style="normal" stroke="#000000" stroke-width="1"/>
  <g transform="matrix(1,0,0,1,0,0)" font-family="WenQuanYi Micro Hei" stroke-linecap="square" font-weight="400" stroke-opacity="1" stroke-linejoin="bevel" fill="none" font-size="38.8056" font-style="normal" stroke="#000000" stroke-width="1"/>
  <g transform="matrix(1,0,0,1,1485,1050)" font-family="WenQuanYi Micro Hei" stroke-linecap="square" font-weight="400" stroke-opacity="1" stroke-linejoin="bevel" fill="none" font-size="38.8056" font-style="normal" stroke="#000000" stroke-width="1"/>
  <g transform="matrix(1,0,0,1,1485,1050)" font-family="WenQuanYi Micro Hei" stroke-linecap="square" font-weight="400" stroke-opacity="1" stroke-linejoin="bevel" fill="none" font-size="38.8056" font-style="normal" stroke="#000000" stroke-width="1"/>
  <g transform="matrix(1,0,0,1,1485,1050)" font-family="WenQuanYi Micro Hei" font-weight="400" fill="#ffffff" font-size="38.8056" font-style="normal" fill-opacity="1" stroke="none">
   <path vector-effect="non-scaling-stroke" d="M926.25,806.25 L926.25,431.25 L-273.75,431.25 L-273.75,806.25 L926.25,806.25" fill-rule="evenodd"/>
  </g>
  <g transform="matrix(1,0,0,1,1485,1050)" font-family="WenQuanYi Micro Hei" stroke-linecap="square" font-weight="400" stroke-opacity="1" stroke-linejoin="bevel" fill="none" font-size="38.8056" font-style="normal" stroke="#000000" stroke-width="1"/>
  <g transform="matrix(1,0,0,1,1485,1050)" font-family="WenQuanYi Micro Hei" stroke-linecap="square" font-weight="400" stroke-opacity="1" stroke-linejoin="bevel" fill="none" font-size="38.8056" font-style="normal" stroke="#000000" stroke-width="1"/>
  <g transform="matrix(1,0,0,1,1485,1050)" font-family="WenQuanYi Micro Hei" stroke-linecap="square" font-weight="400" stroke-opacity="1" stroke-linejoin="bevel" fill="none" font-size="38.8056" font-style="normal" stroke="#000000" stroke-width="1"/>
  <g transform="matrix(1,0,0,1,0,0)" font-family="WenQuanYi Micro Hei" stroke-linecap="square" font-weight="400" stroke-opacity="1" stroke-linejoin="bevel" fill="none" font-size="38.8056" font-style="normal" stroke="#000000" stroke-width="1"/>
  <g transform="matrix(1,0,0,1,1485,1050)" font-family="WenQuanYi Micro Hei" stroke-linecap="square" font-weight="400" stroke-opacity="1" stroke-linejoin="bevel" fill="none" font-size="38.8056" font-style="normal" stroke="#000000" stroke-width="1"/>
  <g transform="matrix(1,0,0,1,1485,1050)" font-family="WenQuanYi Micro Hei" stroke-linecap="square" font-weight="400" stroke-opacity="1" stroke-linejoin="bevel" fill="none" font-size="38.8056" font-style="normal" stroke="#000000" stroke-width="1"/>
  <g transform="matrix(1,0,0,1,1485,1050)" font-family="WenQuanYi Micro Hei" font-weight="400" fill="#ffffff" font-size="38.8056" font-style="normal" fill-opacity="1" stroke="none">
   <path vector-effect="non-scaling-stroke" d="M1038.75,15 L1038.75,-97.5 L926.25,-97.5 L926.25,15 L1038.75,15" fill-rule="evenodd"/>
  </g>
  <g transform="matrix(1,0,0,1,1485,1050)" font-family="WenQuanYi Micro Hei" stroke-linecap="square" font-weight="400" stroke-opacity="1" stroke-linejoin="bevel" fill="none" font-size="38.8056" font-style="normal" stroke="#000000" stroke-width="1"/>
  <g transform="matrix(1,0,0,1,1485,1050)" font-family="WenQuanYi Micro Hei" stroke-linecap="square" font-weight="400" stroke-opacity="1" stroke-linejoin="bevel" fill="none" font-size="38.8056" font-style="normal" stroke="#000000" stroke-width="1"/>
  <g transform="matrix(1,0,0,1,1485,1050)" font-family="WenQuanYi Micro Hei" stroke-linecap="square" font-weight="400" stroke-opacity="1" stroke-linejoin="bevel" fill="none" font-size="38.8056" font-style="normal" stroke="#000000" stroke-width="1"/>
  <g transform="matrix(1,0,0,1,0,0)" font-family="WenQuanYi Micro Hei" stroke-linecap="square" font-weight="400" stroke-opacity="1" stroke-linejoin="bevel" fill="none" font-size="38.8056" font-style="normal" stroke="#000000" stroke-width="1"/>
  <g transform="matrix(1,0,0,1,1485,1050)" font-family="WenQuanYi Micro Hei" stroke-linecap="square" font-weight="400" stroke-opacity="1" stroke-linejoin="bevel" fill="none" font-size="38.8056" font-style="normal" stroke="#000000" stroke-width="1"/>
  <g transform="matrix(1,0,0,1,1485,1050)" font-family="WenQuanYi Micro Hei" stroke-linecap="square" font-weight="400" stroke-opacity="1" stroke-linejoin="bevel" fill="none" font-size="38.8056" font-style="normal" stroke="#000000" stroke-width="1"/>
  <g transform="matrix(1,0,0,1,1485,1050)" font-family="WenQuanYi Micro Hei" stroke-linecap="round" font-weight="400" stroke-opacity="1" stroke-linejoin="bevel" fill="none" font-size="38.8056" font-style="normal" stroke="#000000" stroke-width="1">
   <path vector-effect="non-scaling-stroke" d="M-273.75,806.25 L926.25,806.25" fill-rule="evenodd"/>
  </g>
  <g transform="matrix(1,0,0,1,1485,1050)" font-family="WenQuanYi Micro Hei" stroke-linecap="square" font-weight="400" stroke-opacity="1" stroke-linejoin="bevel" fill="none" font-size="38.8056" font-style="normal" stroke="#000000" stroke-width="1"/>
  <g transform="matrix(1,0,0,1,1485,1050)" font-family="WenQuanYi Micro Hei" stroke-linecap="square" font-weight="400" stroke-opacity="1" stroke-linejoin="bevel" fill="none" font-size="38.8056" font-style="normal" stroke="#000000" stroke-width="1"/>
  <g transform="matrix(1,0,0,1,1485,1050)" font-family="WenQuanYi Micro Hei" stroke-linecap="round" font-weight="400" stroke-opacity="1" stroke-linejoin="bevel" fill="none" font-size="38.8056" font-style="normal" stroke="#000000" stroke-width="1">
   <path vector-effect="non-scaling-stroke" d="M926.25,806.25 L926.25,431.25" fill-rule="evenodd"/>
  </g>
  <g transform="matrix(1,0,0,1,1485,1050)" font-family="WenQuanYi Micro Hei" stroke-linecap="square" font-weight="400" stroke-opacity="1" stroke-linejoin="bevel" fill="none" font-size="38.8056" font-style="normal" stroke="#000000" stroke-width="1"/>
  <g transform="matrix(1,0,0,1,1485,1050)" font-family="WenQuanYi Micro Hei" stroke-linecap="square" font-weight="400" stroke-opacity="1" stroke-linejoin="bevel" fill="none" font-size="38.8056" font-style="normal" stroke="#000000" stroke-width="1"/>
  <g transform="matrix(1,0,0,1,1485,1050)" font-family="WenQuanYi Micro Hei" stroke-linecap="round" font-weight="400" stroke-opacity="1" stroke-linejoin="bevel" fill="none" font-size="38.8056" font-style="normal" stroke="#000000" stroke-width="1">
   <path vector-effect="non-scaling-stroke" d="M926.25,431.25 L-273.75,431.25" fill-rule="evenodd"/>
  </g>
  <g transform="matrix(1,0,0,1,1485,1050)" font-family="WenQuanYi Micro Hei" stroke-linecap="square" font-weight="400" stroke-opacity="1" stroke-linejoin="bevel" fill="none" font-size="38.8056" font-style="normal" stroke="#000000" stroke-width="1"/>
  <g transform="matrix(1,0,0,1,1485,1050)" font-family="WenQuanYi Micro Hei" stroke-linecap="square" font-weight="400" stroke-opacity="1" stroke-linejoin="bevel" fill="none" font-size="38.8056" font-style="normal" stroke="#000000" stroke-width="1"/>
  <g transform="matrix(1,0,0,1,1485,1050)" font-family="WenQuanYi Micro Hei" stroke-linecap="round" font-weight="400" stroke-opacity="1" stroke-linejoin="bevel" fill="none" font-size="38.8056" font-style="normal" stroke="#000000" stroke-width="1">
   <path vector-effect="non-scaling-stroke" d="M-273.75,431.25 L-273.75,806.25" fill-rule="evenodd"/>
  </g>
  <g transform="matrix(1,0,0,1,1485,1050)" font-family="WenQuanYi Micro Hei" stroke-linecap="square" font-weight="400" stroke-opacity="1" stroke-linejoin="bevel" fill="none" font-size="38.8056" font-style="normal" stroke="#000000" stroke-width="1"/>
  <g transform="matrix(1,0,0,1,1485,1050)" font-family="WenQuanYi Micro Hei" stroke-linecap="square" font-weight="400" stroke-opacity="1" stroke-linejoin="bevel" fill="none" font-size="38.8056" font-style="normal" stroke="#000000" stroke-width="1"/>
  <g transform="matrix(1,0,0,1,1485,1050)" font-family="WenQuanYi Micro Hei" stroke-linecap="round" font-weight="400" stroke-opacity="1" stroke-linejoin="bevel" fill="none" font-size="38.8056" font-style="normal" stroke="#000000" stroke-width="1">
   <path vector-effect="non-scaling-stroke" d="M-926.25,806.247 L-326.25,806.247" fill-rule="evenodd"/>
  </g>
  <g transform="matrix(1,0,0,1,1485,1050)" font-family="WenQuanYi Micro Hei" stroke-linecap="square" font-weight="400" stroke-opacity="1" stroke-linejoin="bevel" fill="none" font-size="38.8056" font-style="normal" stroke="#000000" stroke-width="1"/>
  <g transform="matrix(1,0,0,1,1485,1050)" font-family="WenQuanYi Micro Hei" stroke-linecap="square" font-weight="400" stroke-opacity="1" stroke-linejoin="bevel" fill="none" font-size="38.8056" font-style="normal" stroke="#000000" stroke-width="1"/>
  <g transform="matrix(1,0,0,1,1485,1050)" font-family="WenQuanYi Micro Hei" stroke-linecap="round" font-weight="400" stroke-opacity="1" stroke-linejoin="bevel" fill="none" font-size="38.8056" font-style="normal" stroke="#000000" stroke-width="1">
   <path vector-effect="non-scaling-stroke" d="M-326.25,806.247 L-326.25,-768.753" fill-rule="evenodd"/>
  </g>
  <g transform="matrix(1,0,0,1,1485,1050)" font-family="WenQuanYi Micro Hei" stroke-linecap="square" font-weight="400" stroke-opacity="1" stroke-linejoin="bevel" fill="none" font-size="38.8056" font-style="normal" stroke="#000000" stroke-width="1"/>
  <g transform="matrix(1,0,0,1,1485,1050)" font-family="WenQuanYi Micro Hei" stroke-linecap="square" font-weight="400" stroke-opacity="1" stroke-linejoin="bevel" fill="none" font-size="38.8056" font-style="normal" stroke="#000000" stroke-width="1"/>
  <g transform="matrix(1,0,0,1,1485,1050)" font-family="WenQuanYi Micro Hei" stroke-linecap="round" font-weight="400" stroke-opacity="1" stroke-linejoin="bevel" fill="none" font-size="38.8056" font-style="normal" stroke="#000000" stroke-width="1">
   <path vector-effect="non-scaling-stroke" d="M-326.25,-768.753 L-926.25,-768.753" fill-rule="evenodd"/>
  </g>
  <g transform="matrix(1,0,0,1,1485,1050)" font-family="WenQuanYi Micro Hei" stroke-linecap="square" font-weight="400" stroke-opacity="1" stroke-linejoin="bevel" fill="none" font-size="38.8056" font-style="normal" stroke="#000000" stroke-width="1"/>
  <g transform="matrix(1,0,0,1,1485,1050)" font-family="WenQuanYi Micro Hei" stroke-linecap="square" font-weight="400" stroke-opacity="1" stroke-linejoin="bevel" fill="none" font-size="38.8056" font-style="normal" stroke="#000000" stroke-width="1"/>
  <g transform="matrix(1,0,0,1,1485,1050)" font-family="WenQuanYi Micro Hei" stroke-linecap="round" font-weight="400" stroke-opacity="1" stroke-linejoin="bevel" fill="none" font-size="38.8056" font-style="normal" stroke="#000000" stroke-width="1">
   <path vector-effect="non-scaling-stroke" d="M-926.25,-768.753 L-926.25,806.247" fill-rule="evenodd"/>
  </g>
  <g transform="matrix(1,0,0,1,1485,1050)" font-family="WenQuanYi Micro Hei" stroke-linecap="square" font-weight="400" stroke-opacity="1" stroke-linejoin="bevel" fill="none" font-size="38.8056" font-style="normal" stroke="#000000" stroke-width="1"/>
  <g transform="matrix(1,0,0,1,1485,1050)" font-family="WenQuanYi Micro Hei" stroke-linecap="square" font-weight="400" stroke-opacity="1" stroke-linejoin="bevel" fill="none" font-size="38.8056" font-style="normal" stroke="#000000" stroke-width="1"/>
  <g transform="matrix(1,0,0,1,1485,1050)" font-family="WenQuanYi Micro Hei" stroke-linecap="round" font-weight="400" stroke-opacity="1" stroke-linejoin="bevel" fill="none" font-size="38.8056" font-style="normal" stroke="#000000" stroke-width="1">
   <path vector-effect="non-scaling-stroke" d="M-926.25,806.25 L926.25,806.25" fill-rule="evenodd"/>
  </g>
  <g transform="matrix(1,0,0,1,1485,1050)" font-family="WenQuanYi Micro Hei" stroke-linecap="square" font-weight="400" stroke-opacity="1" stroke-linejoin="bevel" fill="none" font-size="38.8056" font-style="normal" stroke="#000000" stroke-width="1"/>
  <g transform="matrix(1,0,0,1,1485,1050)" font-family="WenQuanYi Micro Hei" stroke-linecap="square" font-weight="400" stroke-opacity="1" stroke-linejoin="bevel" fill="none" font-size="38.8056" font-style="normal" stroke="#000000" stroke-width="1"/>
  <g transform="matrix(1,0,0,1,1485,1050)" font-family="WenQuanYi Micro Hei" stroke-linecap="round" font-weight="400" stroke-opacity="1" stroke-linejoin="bevel" fill="none" font-size="38.8056" font-style="normal" stroke="#000000" stroke-width="1">
   <path vector-effect="non-scaling-stroke" d="M-926.25,-806.25 L-926.25,806.25" fill-rule="evenodd"/>
  </g>
  <g transform="matrix(1,0,0,1,1485,1050)" font-family="WenQuanYi Micro Hei" stroke-linecap="square" font-weight="400" stroke-opacity="1" stroke-linejoin="bevel" fill="none" font-size="38.8056" font-style="normal" stroke="#000000" stroke-width="1"/>
  <g transform="matrix(1,0,0,1,1485,1050)" font-family="WenQuanYi Micro Hei" stroke-linecap="square" font-weight="400" stroke-opacity="1" stroke-linejoin="bevel" fill="none" font-size="38.8056" font-style="normal" stroke="#000000" stroke-width="1"/>
  <g transform="matrix(1,0,0,1,1485,1050)" font-family="WenQuanYi Micro Hei" stroke-linecap="round" font-weight="400" stroke-opacity="1" stroke-linejoin="bevel" fill="none" font-size="38.8056" font-style="normal" stroke="#000000" stroke-width="1">
   <path vector-effect="non-scaling-stroke" d="M926.25,806.25 L926.25,15" fill-rule="evenodd"/>
  </g>
  <g transform="matrix(1,0,0,1,1485,1050)" font-family="WenQuanYi Micro Hei" stroke-linecap="square" font-weight="400" stroke-opacity="1" stroke-linejoin="bevel" fill="none" font-size="38.8056" font-style="normal" stroke="#000000" stroke-width="1"/>
  <g transform="matrix(1,0,0,1,1485,1050)" font-family="WenQuanYi Micro Hei" stroke-linecap="square" font-weight="400" stroke-opacity="1" stroke-linejoin="bevel" fill="none" font-size="38.8056" font-style="normal" stroke="#000000" stroke-width="1"/>
  <g transform="matrix(1,0,0,1,1485,1050)" font-family="WenQuanYi Micro Hei" stroke-linecap="round" font-weight="400" stroke-opacity="1" stroke-linejoin="bevel" fill="none" font-size="38.8056" font-style="normal" stroke="#000000" stroke-width="1">
   <path vector-effect="non-scaling-stroke" d="M926.25,15 L1038.75,15" fill-rule="evenodd"/>
  </g>
  <g transform="matrix(1,0,0,1,1485,1050)" font-family="WenQuanYi Micro Hei" stroke-linecap="square" font-weight="400" stroke-opacity="1" stroke-linejoin="bevel" fill="none" font-size="38.8056" font-style="normal" stroke="#000000" stroke-width="1"/>
  <g transform="matrix(1,0,0,1,1485,1050)" font-family="WenQuanYi Micro Hei" stroke-linecap="square" font-weight="400" stroke-opacity="1" stroke-linejoin="bevel" fill="none" font-size="38.8056" font-style="normal" stroke="#000000" stroke-width="1"/>
  <g transform="matrix(1,0,0,1,1485,1050)" font-family="WenQuanYi Micro Hei" stroke-linecap="round" font-weight="400" stroke-opacity="1" stroke-linejoin="bevel" fill="none" font-size="38.8056" font-style="normal" stroke="#000000" stroke-width="1">
   <path vector-effect="non-scaling-stroke" d="M1038.75,15 L1038.75,918.75" fill-rule="evenodd"/>
  </g>
  <g transform="matrix(1,0,0,1,1485,1050)" font-family="WenQuanYi Micro Hei" stroke-linecap="square" font-weight="400" stroke-opacity="1" stroke-linejoin="bevel" fill="none" font-size="38.8056" font-style="normal" stroke="#000000" stroke-width="1"/>
  <g transform="matrix(1,0,0,1,1485,1050)" font-family="WenQuanYi Micro Hei" stroke-linecap="square" font-weight="400" stroke-opacity="1" stroke-linejoin="bevel" fill="none" font-size="38.8056" font-style="normal" stroke="#000000" stroke-width="1"/>
  <g transform="matrix(1,0,0,1,1485,1050)" font-family="WenQuanYi Micro Hei" stroke-linecap="round" font-weight="400" stroke-opacity="1" stroke-linejoin="bevel" fill="none" font-size="38.8056" font-style="normal" stroke="#000000" stroke-width="1">
   <path vector-effect="non-scaling-stroke" d="M1038.75,918.75 L-1038.75,918.75" fill-rule="evenodd"/>
  </g>
  <g transform="matrix(1,0,0,1,1485,1050)" font-family="WenQuanYi Micro Hei" stroke-linecap="square" font-weight="400" stroke-opacity="1" stroke-linejoin="bevel" fill="none" font-size="38.8056" font-style="normal" stroke="#000000" stroke-width="1"/>
  <g transform="matrix(1,0,0,1,1485,1050)" font-family="WenQuanYi Micro Hei" stroke-linecap="square" font-weight="400" stroke-opacity="1" stroke-linejoin="bevel" fill="none" font-size="38.8056" font-style="normal" stroke="#000000" stroke-width="1"/>
  <g transform="matrix(1,0,0,1,1485,1050)" font-family="WenQuanYi Micro Hei" stroke-linecap="round" font-weight="400" stroke-opacity="1" stroke-linejoin="bevel" fill="none" font-size="38.8056" font-style="normal" stroke="#000000" stroke-width="1">
   <path vector-effect="non-scaling-stroke" d="M-1038.75,918.75 L-1038.75,-918.75" fill-rule="evenodd"/>
  </g>
  <g transform="matrix(1,0,0,1,1485,1050)" font-family="WenQuanYi Micro Hei" stroke-linecap="square" font-weight="400" stroke-opacity="1" stroke-linejoin="bevel" fill="none" font-size="38.8056" font-style="normal" stroke="#000000" stroke-width="1"/>
  <g transform="matrix(1,0,0,1,1485,1050)" font-family="WenQuanYi Micro Hei" stroke-linecap="square" font-weight="400" stroke-opacity="1" stroke-linejoin="bevel" fill="none" font-size="38.8056" font-style="normal" stroke="#000000" stroke-width="1"/>
  <g transform="matrix(1,0,0,1,1485,1050)" font-family="WenQuanYi Micro Hei" stroke-linecap="round" font-weight="400" stroke-opacity="1" stroke-linejoin="bevel" fill="none" font-size="38.8056" font-style="normal" stroke="#000000" stroke-width="1">
   <path vector-effect="non-scaling-stroke" d="M-1038.75,-918.75 L1038.75,-918.75" fill-rule="evenodd"/>
  </g>
  <g transform="matrix(1,0,0,1,1485,1050)" font-family="WenQuanYi Micro Hei" stroke-linecap="square" font-weight="400" stroke-opacity="1" stroke-linejoin="bevel" fill="none" font-size="38.8056" font-style="normal" stroke="#000000" stroke-width="1"/>
  <g transform="matrix(1,0,0,1,1485,1050)" font-family="WenQuanYi Micro Hei" stroke-linecap="square" font-weight="400" stroke-opacity="1" stroke-linejoin="bevel" fill="none" font-size="38.8056" font-style="normal" stroke="#000000" stroke-width="1"/>
  <g transform="matrix(1,0,0,1,1485,1050)" font-family="WenQuanYi Micro Hei" stroke-linecap="round" font-weight="400" stroke-opacity="1" stroke-linejoin="bevel" fill="none" font-size="38.8056" font-style="normal" stroke="#000000" stroke-width="1">
   <path vector-effect="non-scaling-stroke" d="M1038.75,-918.75 L1038.75,-806.25" fill-rule="evenodd"/>
  </g>
  <g transform="matrix(1,0,0,1,1485,1050)" font-family="WenQuanYi Micro Hei" stroke-linecap="square" font-weight="400" stroke-opacity="1" stroke-linejoin="bevel" fill="none" font-size="38.8056" font-style="normal" stroke="#000000" stroke-width="1"/>
  <g transform="matrix(1,0,0,1,1485,1050)" font-family="WenQuanYi Micro Hei" stroke-linecap="square" font-weight="400" stroke-opacity="1" stroke-linejoin="bevel" fill="none" font-size="38.8056" font-style="normal" stroke="#000000" stroke-width="1"/>
  <g transform="matrix(1,0,0,1,1485,1050)" font-family="WenQuanYi Micro Hei" stroke-linecap="round" font-weight="400" stroke-opacity="1" stroke-linejoin="bevel" fill="none" font-size="38.8056" font-style="normal" stroke="#000000" stroke-width="1">
   <path vector-effect="non-scaling-stroke" d="M1038.75,-806.25 L-926.25,-806.25" fill-rule="evenodd"/>
  </g>
  <g transform="matrix(1,0,0,1,1485,1050)" font-family="WenQuanYi Micro Hei" stroke-linecap="square" font-weight="400" stroke-opacity="1" stroke-linejoin="bevel" fill="none" font-size="38.8056" font-style="normal" stroke="#000000" stroke-width="1"/>
  <g transform="matrix(1,0,0,1,1485,1050)" font-family="WenQuanYi Micro Hei" stroke-linecap="square" font-weight="400" stroke-opacity="1" stroke-linejoin="bevel" fill="none" font-size="38.8056" font-style="normal" stroke="#000000" stroke-width="1"/>
  <g transform="matrix(1,0,0,1,1485,1050)" font-family="WenQuanYi Micro Hei" stroke-linecap="round" font-weight="400" stroke-opacity="1" stroke-linejoin="bevel" fill="none" font-size="38.8056" font-style="normal" stroke="#000000" stroke-width="1">
   <path vector-effect="non-scaling-stroke" d="M926.25,-97.5 L926.25,15" fill-rule="evenodd"/>
  </g>
  <g transform="matrix(1,0,0,1,1485,1050)" font-family="WenQuanYi Micro Hei" stroke-linecap="square" font-weight="400" stroke-opacity="1" stroke-linejoin="bevel" fill="none" font-size="38.8056" font-style="normal" stroke="#000000" stroke-width="1"/>
  <g transform="matrix(1,0,0,1,1485,1050)" font-family="WenQuanYi Micro Hei" stroke-linecap="square" font-weight="400" stroke-opacity="1" stroke-linejoin="bevel" fill="none" font-size="38.8056" font-style="normal" stroke="#000000" stroke-width="1"/>
  <g transform="matrix(1,0,0,1,1485,1050)" font-family="WenQuanYi Micro Hei" stroke-linecap="round" font-weight="400" stroke-opacity="1" stroke-linejoin="bevel" fill="none" font-size="38.8056" font-style="normal" stroke="#000000" stroke-width="1">
   <path vector-effect="non-scaling-stroke" d="M1038.75,15 L1038.75,-97.5" fill-rule="evenodd"/>
  </g>
  <g transform="matrix(1,0,0,1,1485,1050)" font-family="WenQuanYi Micro Hei" stroke-linecap="square" font-weight="400" stroke-opacity="1" stroke-linejoin="bevel" fill="none" font-size="38.8056" font-style="normal" stroke="#000000" stroke-width="1"/>
  <g transform="matrix(1,0,0,1,1485,1050)" font-family="WenQuanYi Micro Hei" stroke-linecap="square" font-weight="400" stroke-opacity="1" stroke-linejoin="bevel" fill="none" font-size="38.8056" font-style="normal" stroke="#000000" stroke-width="1"/>
  <g transform="matrix(1,0,0,1,1485,1050)" font-family="WenQuanYi Micro Hei" stroke-linecap="round" font-weight="400" stroke-opacity="1" stroke-linejoin="bevel" fill="none" font-size="38.8056" font-style="normal" stroke="#000000" stroke-width="1">
   <path vector-effect="non-scaling-stroke" d="M1038.75,-97.5 L926.25,-97.5" fill-rule="evenodd"/>
  </g>
  <g transform="matrix(1,0,0,1,1485,1050)" font-family="WenQuanYi Micro Hei" stroke-linecap="square" font-weight="400" stroke-opacity="1" stroke-linejoin="bevel" fill="none" font-size="38.8056" font-style="normal" stroke="#000000" stroke-width="1"/>
  <g transform="matrix(1,0,0,1,0,0)" font-family="WenQuanYi Micro Hei" stroke-linecap="square" font-weight="400" stroke-opacity="1" stroke-linejoin="bevel" fill="none" font-size="38.8056" font-style="normal" stroke="#000000" stroke-width="1"/>
 </g>
</svg>
